<?xml version="1.0" ?><svg id="Layer_1_1_" style="enable-background:new 0 0 64 64;" version="1.1" viewBox="0 0 64 64" xml:space="preserve" xmlns="http://www.w3.org/2000/svg" xmlns:xlink="http://www.w3.org/1999/xlink"><g><g><path d="M25,2c-2.809,0-5.225,1.659-6.34,4.047C18.441,6.026,18.224,6,18,6c-3.866,0-7,3.134-7,7v0.422    c-1.567,0.686-2.695,2.153-2.932,3.907L8,17.29C5.108,18.151,3,20.829,3,24c0,1.347,0.387,2.601,1.047,3.669    C2.778,29.085,2,30.949,2,33c0,2.344,1.012,4.449,2.619,5.912C4.221,39.863,4,40.905,4,42c0,4.08,3.054,7.446,7,7.938l0-0.002V50    h0.378c0.714,2.021,2.457,3.553,4.621,3.917l0.015-0.184C16.011,53.823,16,53.91,16,54c0,4.418,3.582,8,8,8s8-3.582,8-8V9    C32,5.134,28.866,2,25,2z M11,37.955V38C10.99,38.027,10.992,38.005,11,37.955z" style="fill:#FFCB57;"/></g><g><path d="M39,28h-4v-2h4c0.551,0,1-0.449,1-1v-7h2v7C42,26.654,40.654,28,39,28z" style="fill:#E56565;"/></g><g><path d="M41,16c-1.654,0-3-1.346-3-3s1.346-3,3-3s3,1.346,3,3S42.654,16,41,16z M41,12    c-0.551,0-1,0.449-1,1s0.449,1,1,1s1-0.449,1-1S41.551,12,41,12z" style="fill:#E56565;"/></g><g><path d="M42,46h-2v-7c0-0.551-0.449-1-1-1h-4v-2h4c1.654,0,3,1.346,3,3V46z" style="fill:#E56565;"/></g><g><path d="M41,54c-1.654,0-3-1.346-3-3s1.346-3,3-3s3,1.346,3,3S42.654,54,41,54z M41,50    c-0.551,0-1,0.449-1,1s0.449,1,1,1s1-0.449,1-1S41.551,50,41,50z" style="fill:#E56565;"/></g><g><path d="M45,33H35v-2h10c1.654,0,3-1.346,3-3v-3h2v3C50,30.757,47.757,33,45,33z" style="fill:#E56565;"/></g><g><path d="M49,23c-1.654,0-3-1.346-3-3s1.346-3,3-3s3,1.346,3,3S50.654,23,49,23z M49,19    c-0.551,0-1,0.449-1,1s0.449,1,1,1s1-0.449,1-1S49.551,19,49,19z" style="fill:#E56565;"/></g><g><rect height="10" style="fill:#E56565;" width="2" x="48" y="36"/></g><g><rect height="16" style="fill:#E56565;" width="2" x="53" y="22"/></g><g><rect height="2" style="fill:#E56565;" width="2" x="53" y="40"/></g><g><path d="M36.782,1.367c-1.45-0.223-2.92,0.194-4.034,1.148c-0.569,0.487-1.011,1.089-1.309,1.756    C29.98,2.292,27.641,1,25,1c-2.956,0-5.536,1.615-6.921,4.006C18.053,5.005,18.026,5,18,5c-4.346,0-7.886,3.485-7.99,7.806    c-1.387,0.802-2.421,2.14-2.822,3.731C4.114,17.701,2,20.678,2,24c0,1.235,0.29,2.452,0.842,3.559C1.649,29.123,1,31.029,1,33    c0,2.306,0.891,4.511,2.461,6.175C3.166,40.064,3,41.013,3,42c0,4.444,3.26,8.214,7.621,8.886    c0.825,1.833,2.417,3.251,4.415,3.829C15.403,59.344,19.279,63,24,63c2.984,0,5.626-1.466,7.264-3.709    c0.285,0.842,0.792,1.602,1.483,2.194c0.917,0.785,2.074,1.208,3.263,1.208c0.256,0,0.514-0.02,0.771-0.06    C51.974,60.281,63,47.397,63,32S51.974,3.719,36.782,1.367z M24,61c-3.86,0-7-3.14-7-7s3.14-7,7-7v-2    c-4.492,0-8.216,3.313-8.883,7.621C13.265,51.872,12,50.078,12,48c0-2.757,2.243-5,5-5v-2c-3.86,0-7,3.14-7,7    c0,0.242,0.015,0.48,0.039,0.716C7.103,47.861,5,45.148,5,42c0-3.86,3.14-7,7-7v-2c-3.196,0-6.001,1.68-7.598,4.197    C3.501,35.995,3,34.525,3,33c0-1.718,0.636-3.374,1.792-4.664l0.499-0.557l-0.393-0.636C4.311,26.193,4,25.106,4,24    c0-2.179,1.215-4.158,3.058-5.208C7.448,21.727,9.961,24,13,24v-2c-2.206,0-4-1.794-4-4s1.794-4,4-4s4,1.794,4,4h2    c0-3.309-2.691-6-6-6c-0.314,0-0.62,0.032-0.922,0.078c0.408-2.627,2.521-4.693,5.172-5.026C17.093,7.677,17,8.327,17,9    c0,4.411,3.589,8,8,8v-2c-3.309,0-6-2.691-6-6s2.691-6,6-6s6,2.691,6,6v45C31,57.86,27.86,61,24,61z M36.475,60.657    c-0.871,0.138-1.756-0.117-2.426-0.69C33.382,59.395,33,58.564,33,57.688V6.312c0-0.877,0.382-1.708,1.049-2.279    c0.551-0.472,1.248-0.726,1.963-0.726c0.154,0,0.309,0.012,0.464,0.036C50.457,5.508,61,17.828,61,32S50.457,58.492,36.475,60.657    z" style="fill:#3F3A34;"/><rect height="2" style="fill:#3F3A34;" width="2" x="25" y="8"/><rect height="2" style="fill:#3F3A34;" width="2" x="20" y="31"/><rect height="2" style="fill:#3F3A34;" width="2" x="26" y="53"/><rect height="2" style="fill:#3F3A34;" width="2" x="9" y="38"/><rect height="2" style="fill:#3F3A34;" width="2" x="27" y="24"/><rect height="2" style="fill:#3F3A34;" width="2" x="8" y="26"/></g></g></svg>